{"glyphs":{"0":{"ha":633,"x_min":0,"x_max":537,"o":"m 179 806 l 358 806 l 358 716 l 448 716 l 448 627 l 537 627 l 537 179 l 448 179 l 448 90 l 358 90 l 358 0 l 179 0 l 179 90 l 90 90 l 90 179 l 0 179 l 0 627 l 90 627 l 90 716 l 179 716 l 179 806 m 179 627 l 179 179 l 358 179 l 358 627 l 179 627 z "},"1":{"ha":633,"x_min":0,"x_max":537,"o":"m 179 806 l 358 806 l 358 179 l 537 179 l 537 90 l 448 90 l 448 0 l 0 0 l 0 90 l 90 90 l 90 179 l 179 179 l 179 537 l 0 537 l 0 627 l 90 627 l 90 716 l 179 716 l 179 806 z "},"2":{"ha":633,"x_min":0,"x_max":627,"o":"m 179 806 l 448 806 l 448 716 l 537 716 l 537 358 l 448 358 l 448 269 l 358 269 l 358 179 l 627 179 l 627 90 l 537 90 l 537 0 l 0 0 l 0 90 l 90 90 l 90 179 l 179 179 l 179 269 l 269 269 l 269 358 l 358 358 l 358 627 l 179 627 l 179 537 l 0 537 l 0 627 l 90 627 l 90 716 l 179 716 l 179 806 z "},"3":{"ha":633,"x_min":0,"x_max":627,"o":"m 179 806 l 627 806 l 627 627 l 537 627 l 537 537 l 448 537 l 448 358 l 537 358 l 537 90 l 448 90 l 448 0 l 0 0 l 0 90 l 90 90 l 90 179 l 358 179 l 358 269 l 269 269 l 269 358 l 179 358 l 179 448 l 269 448 l 269 537 l 358 537 l 358 627 l 90 627 l 90 716 l 179 716 l 179 806 z "},"4":{"ha":633,"x_min":0,"x_max":537,"o":"m 358 806 l 537 806 l 537 0 l 358 0 l 358 179 l 0 179 l 0 448 l 90 448 l 90 537 l 179 537 l 179 627 l 269 627 l 269 716 l 358 716 l 358 806 m 269 537 l 269 448 l 179 448 l 179 358 l 358 358 l 358 537 l 269 537 z "},"5":{"ha":633,"x_min":0,"x_max":627,"o":"m 179 806 l 627 806 l 627 716 l 537 716 l 537 627 l 269 627 l 269 537 l 448 537 l 448 448 l 537 448 l 537 179 l 448 179 l 448 90 l 358 90 l 358 0 l 0 0 l 0 90 l 90 90 l 90 179 l 269 179 l 269 269 l 358 269 l 358 358 l 90 358 l 90 627 l 179 627 l 179 806 z "},"6":{"ha":633,"x_min":0,"x_max":537,"o":"m 269 806 l 537 806 l 537 716 l 448 716 l 448 627 l 269 627 l 269 537 l 448 537 l 448 448 l 537 448 l 537 179 l 448 179 l 448 90 l 358 90 l 358 0 l 90 0 l 90 90 l 0 90 l 0 448 l 90 448 l 90 627 l 179 627 l 179 716 l 269 716 l 269 806 m 179 448 l 179 179 l 269 179 l 269 269 l 358 269 l 358 448 l 179 448 z "},"7":{"ha":633,"x_min":0,"x_max":537,"o":"m 90 806 l 537 806 l 537 537 l 448 537 l 448 448 l 358 448 l 358 358 l 269 358 l 269 179 l 179 179 l 179 0 l 0 0 l 0 269 l 90 269 l 90 358 l 179 358 l 179 448 l 269 448 l 269 537 l 358 537 l 358 627 l 0 627 l 0 716 l 90 716 l 90 806 z "},"8":{"ha":633,"x_min":0,"x_max":627,"o":"m 179 806 l 537 806 l 537 716 l 627 716 l 627 537 l 537 537 l 537 448 l 448 448 l 448 358 l 537 358 l 537 90 l 448 90 l 448 0 l 90 0 l 90 90 l 0 90 l 0 358 l 90 358 l 90 448 l 179 448 l 179 537 l 90 537 l 90 716 l 179 716 l 179 806 m 269 716 l 269 537 l 358 537 l 358 627 l 448 627 l 448 716 l 269 716 m 179 358 l 179 90 l 269 90 l 269 179 l 358 179 l 358 358 l 179 358 z "},"9":{"ha":633,"x_min":0,"x_max":537,"o":"m 179 806 l 448 806 l 448 716 l 537 716 l 537 358 l 448 358 l 448 179 l 358 179 l 358 90 l 269 90 l 269 0 l 0 0 l 0 90 l 90 90 l 90 179 l 269 179 l 269 269 l 90 269 l 90 358 l 0 358 l 0 627 l 90 627 l 90 716 l 179 716 l 179 806 m 269 716 l 269 627 l 179 627 l 179 448 l 358 448 l 358 716 l 269 716 z "},"\u0000":{"ha":0,"x_min":0,"x_max":0,"o":""},"\f":{"ha":463,"x_min":0,"x_max":0,"o":""}," ":{"ha":452,"x_min":0,"x_max":0,"o":""},"!":{"ha":271,"x_min":0,"x_max":179,"o":"m 90 895 l 179 895 l 179 179 l 0 179 l 0 806 l 90 806 l 90 895 m 0 90 l 179 90 l 179 -90 l 0 -90 l 0 90 z "},"\"":{"ha":543,"x_min":0,"x_max":448,"o":"m 90 895 l 179 895 l 179 627 l 90 627 l 90 537 l 0 537 l 0 806 l 90 806 l 90 895 m 358 895 l 448 895 l 448 627 l 358 627 l 358 537 l 269 537 l 269 806 l 358 806 l 358 895 z "},"#":{"ha":905,"x_min":0,"x_max":806,"o":"m 358 985 l 448 985 l 448 806 l 537 806 l 537 895 l 627 895 l 627 985 l 716 985 l 716 806 l 806 806 l 806 716 l 716 716 l 716 627 l 627 627 l 627 537 l 716 537 l 716 448 l 627 448 l 627 358 l 537 358 l 537 269 l 448 269 l 448 179 l 358 179 l 358 358 l 269 358 l 269 269 l 179 269 l 179 179 l 90 179 l 90 358 l 0 358 l 0 448 l 90 448 l 90 537 l 179 537 l 179 627 l 90 627 l 90 716 l 179 716 l 179 806 l 269 806 l 269 895 l 358 895 l 358 985 m 358 627 l 358 537 l 448 537 l 448 627 l 358 627 z "},"$":{"ha":723,"x_min":0,"x_max":627,"o":"m 358 985 l 537 985 l 537 806 l 627 806 l 627 627 l 537 627 l 537 716 l 358 716 l 358 627 l 269 627 l 269 537 l 448 537 l 448 448 l 537 448 l 537 179 l 448 179 l 448 90 l 269 90 l 269 -90 l 90 -90 l 90 90 l 0 90 l 0 269 l 179 269 l 179 179 l 269 179 l 269 269 l 358 269 l 358 358 l 179 358 l 179 448 l 90 448 l 90 716 l 179 716 l 179 806 l 358 806 l 358 985 z "},"%":{"ha":994,"x_min":0,"x_max":895,"o":"m 90 895 l 358 895 l 358 806 l 448 806 l 448 716 l 537 716 l 537 895 l 716 895 l 716 716 l 627 716 l 627 537 l 537 537 l 537 448 l 806 448 l 806 358 l 895 358 l 895 90 l 806 90 l 806 0 l 537 0 l 537 90 l 448 90 l 448 179 l 358 179 l 358 0 l 179 0 l 179 179 l 269 179 l 269 358 l 358 358 l 358 448 l 90 448 l 90 537 l 0 537 l 0 806 l 90 806 l 90 895 m 179 806 l 179 716 l 90 716 l 90 627 l 179 627 l 179 537 l 269 537 l 269 627 l 358 627 l 358 716 l 269 716 l 269 806 l 179 806 m 627 358 l 627 269 l 537 269 l 537 179 l 627 179 l 627 90 l 716 90 l 716 179 l 806 179 l 806 269 l 716 269 l 716 358 l 627 358 z "},"&":{"ha":994,"x_min":0,"x_max":895,"o":"m 179 985 l 537 985 l 537 895 l 627 895 l 627 537 l 537 537 l 537 448 l 627 448 l 627 358 l 716 358 l 716 448 l 895 448 l 895 269 l 806 269 l 806 179 l 895 179 l 895 0 l 716 0 l 716 90 l 537 90 l 537 0 l 90 0 l 90 90 l 0 90 l 0 448 l 90 448 l 90 537 l 179 537 l 179 627 l 90 627 l 90 895 l 179 895 l 179 985 m 269 806 l 269 627 l 448 627 l 448 806 l 269 806 m 269 448 l 269 358 l 179 358 l 179 179 l 448 179 l 448 448 l 269 448 z "},"'":{"ha":271,"x_min":0,"x_max":179,"o":"m 90 895 l 179 895 l 179 627 l 90 627 l 90 537 l 0 537 l 0 806 l 90 806 l 90 895 z "},"(":{"ha":362,"x_min":0,"x_max":269,"o":"m 179 895 l 269 895 l 269 716 l 179 716 l 179 0 l 269 0 l 269 -179 l 179 -179 l 179 -90 l 90 -90 l 90 0 l 0 0 l 0 716 l 90 716 l 90 806 l 179 806 l 179 895 z "},")":{"ha":362,"x_min":0,"x_max":269,"o":"m 0 895 l 90 895 l 90 806 l 179 806 l 179 716 l 269 716 l 269 0 l 179 0 l 179 -90 l 90 -90 l 90 -179 l 0 -179 l 0 0 l 90 0 l 90 716 l 0 716 l 0 895 z "},"*":{"ha":814,"x_min":0,"x_max":716,"o":"m 269 806 l 448 806 l 448 627 l 537 627 l 537 716 l 716 716 l 716 537 l 627 537 l 627 358 l 716 358 l 716 179 l 537 179 l 537 269 l 448 269 l 448 90 l 269 90 l 269 269 l 179 269 l 179 179 l 0 179 l 0 358 l 90 358 l 90 537 l 0 537 l 0 716 l 179 716 l 179 627 l 269 627 l 269 806 z "},"+":{"ha":814,"x_min":0,"x_max":716,"o":"m 358 806 l 448 806 l 448 537 l 716 537 l 716 448 l 627 448 l 627 358 l 448 358 l 448 90 l 269 90 l 269 358 l 0 358 l 0 448 l 90 448 l 90 537 l 269 537 l 269 716 l 358 716 l 358 806 z "},",":{"ha":271,"x_min":0,"x_max":179,"o":"m 90 179 l 179 179 l 179 -90 l 90 -90 l 90 -179 l 0 -179 l 0 90 l 90 90 l 90 179 z "},"-":{"ha":723,"x_min":0,"x_max":627,"o":"m 90 537 l 627 537 l 627 448 l 537 448 l 537 358 l 0 358 l 0 448 l 90 448 l 90 537 z "},".":{"ha":271,"x_min":0,"x_max":179,"o":"m 0 179 l 179 179 l 179 0 l 0 0 l 0 179 z "},"/":{"ha":633,"x_min":0,"x_max":627,"o":"m 448 985 l 627 985 l 627 806 l 537 806 l 537 627 l 448 627 l 448 448 l 358 448 l 358 269 l 269 269 l 269 90 l 179 90 l 179 -90 l 0 -90 l 0 90 l 90 90 l 90 269 l 179 269 l 179 448 l 269 448 l 269 627 l 358 627 l 358 806 l 448 806 l 448 985 z "},":":{"ha":271,"x_min":0,"x_max":179,"o":"m 0 537 l 179 537 l 179 358 l 0 358 l 0 537 m 0 179 l 179 179 l 179 0 l 0 0 l 0 179 z "},";":{"ha":271,"x_min":0,"x_max":179,"o":"m 0 537 l 179 537 l 179 358 l 0 358 l 0 537 m 90 179 l 179 179 l 179 -90 l 90 -90 l 90 -179 l 0 -179 l 0 90 l 90 90 l 90 179 z "},"<":{"ha":633,"x_min":0,"x_max":537,"o":"m 448 895 l 537 895 l 537 716 l 448 716 l 448 627 l 358 627 l 358 537 l 269 537 l 269 448 l 179 448 l 179 358 l 269 358 l 269 269 l 358 269 l 358 179 l 448 179 l 448 90 l 537 90 l 537 -90 l 448 -90 l 448 0 l 358 0 l 358 90 l 269 90 l 269 179 l 179 179 l 179 269 l 90 269 l 90 358 l 0 358 l 0 448 l 90 448 l 90 537 l 179 537 l 179 627 l 269 627 l 269 716 l 358 716 l 358 806 l 448 806 l 448 895 z "},"=":{"ha":723,"x_min":0,"x_max":627,"o":"m 90 627 l 627 627 l 627 537 l 537 537 l 537 448 l 0 448 l 0 537 l 90 537 l 90 627 m 90 358 l 627 358 l 627 269 l 537 269 l 537 179 l 0 179 l 0 269 l 90 269 l 90 358 z "},">":{"ha":633,"x_min":0,"x_max":537,"o":"m 0 895 l 90 895 l 90 806 l 179 806 l 179 716 l 269 716 l 269 627 l 358 627 l 358 537 l 448 537 l 448 448 l 537 448 l 537 358 l 448 358 l 448 269 l 358 269 l 358 179 l 269 179 l 269 90 l 179 90 l 179 0 l 90 0 l 90 -90 l 0 -90 l 0 90 l 90 90 l 90 179 l 179 179 l 179 269 l 269 269 l 269 358 l 358 358 l 358 448 l 269 448 l 269 537 l 179 537 l 179 627 l 90 627 l 90 716 l 0 716 l 0 895 z "},"?":{"ha":723,"x_min":0,"x_max":627,"o":"m 90 985 l 448 985 l 448 895 l 537 895 l 537 806 l 627 806 l 627 537 l 537 537 l 537 448 l 448 448 l 448 358 l 358 358 l 358 179 l 179 179 l 179 448 l 269 448 l 269 537 l 358 537 l 358 627 l 448 627 l 448 716 l 358 716 l 358 806 l 90 806 l 90 716 l 0 716 l 0 895 l 90 895 l 90 985 m 179 90 l 358 90 l 358 -90 l 179 -90 l 179 90 z "},"@":{"ha":814,"x_min":0,"x_max":716,"o":"m 269 895 l 537 895 l 537 806 l 627 806 l 627 716 l 716 716 l 716 358 l 627 358 l 627 269 l 358 269 l 358 358 l 269 358 l 269 537 l 179 537 l 179 269 l 269 269 l 269 179 l 627 179 l 627 90 l 537 90 l 537 0 l 179 0 l 179 90 l 90 90 l 90 179 l 0 179 l 0 537 l 90 537 l 90 716 l 179 716 l 179 806 l 269 806 l 269 895 m 358 716 l 358 627 l 269 627 l 269 537 l 358 537 l 358 627 l 537 627 l 537 537 l 627 537 l 627 627 l 537 627 l 537 716 l 358 716 m 358 448 l 358 358 l 448 358 l 448 448 l 358 448 z "},"A":{"ha":633,"x_min":0,"x_max":537,"o":"m 269 895 l 448 895 l 448 806 l 537 806 l 537 0 l 358 0 l 358 269 l 179 269 l 179 0 l 0 0 l 0 537 l 90 537 l 90 716 l 179 716 l 179 806 l 269 806 l 269 895 m 269 716 l 269 627 l 179 627 l 179 448 l 358 448 l 358 716 l 269 716 z "},"B":{"ha":723,"x_min":0,"x_max":627,"o":"m 179 895 l 537 895 l 537 806 l 627 806 l 627 537 l 537 537 l 537 448 l 627 448 l 627 179 l 537 179 l 537 90 l 448 90 l 448 0 l 0 0 l 0 716 l 90 716 l 90 806 l 179 806 l 179 895 m 269 716 l 269 627 l 179 627 l 179 537 l 358 537 l 358 627 l 448 627 l 448 716 l 269 716 m 179 358 l 179 179 l 358 179 l 358 269 l 448 269 l 448 358 l 179 358 z "},"C":{"ha":723,"x_min":0,"x_max":627,"o":"m 269 895 l 537 895 l 537 806 l 627 806 l 627 627 l 448 627 l 448 716 l 358 716 l 358 627 l 269 627 l 269 448 l 179 448 l 179 179 l 358 179 l 358 269 l 448 269 l 448 358 l 627 358 l 627 179 l 537 179 l 537 90 l 448 90 l 448 0 l 90 0 l 90 90 l 0 90 l 0 537 l 90 537 l 90 716 l 179 716 l 179 806 l 269 806 l 269 895 z "},"D":{"ha":723,"x_min":0,"x_max":627,"o":"m 179 895 l 448 895 l 448 806 l 537 806 l 537 716 l 627 716 l 627 269 l 537 269 l 537 179 l 448 179 l 448 90 l 358 90 l 358 0 l 0 0 l 0 716 l 90 716 l 90 806 l 179 806 l 179 895 m 269 716 l 269 627 l 179 627 l 179 179 l 269 179 l 269 269 l 358 269 l 358 358 l 448 358 l 448 627 l 358 627 l 358 716 l 269 716 z "},"E":{"ha":543,"x_min":0,"x_max":537,"o":"m 179 895 l 537 895 l 537 806 l 448 806 l 448 716 l 269 716 l 269 627 l 179 627 l 179 537 l 448 537 l 448 448 l 358 448 l 358 358 l 179 358 l 179 179 l 537 179 l 537 90 l 448 90 l 448 0 l 0 0 l 0 716 l 90 716 l 90 806 l 179 806 l 179 895 z "},"F":{"ha":543,"x_min":0,"x_max":537,"o":"m 179 895 l 537 895 l 537 806 l 448 806 l 448 716 l 269 716 l 269 627 l 179 627 l 179 537 l 448 537 l 448 448 l 358 448 l 358 358 l 179 358 l 179 0 l 0 0 l 0 716 l 90 716 l 90 806 l 179 806 l 179 895 z "},"G":{"ha":723,"x_min":0,"x_max":627,"o":"m 269 895 l 537 895 l 537 806 l 627 806 l 627 627 l 448 627 l 448 716 l 358 716 l 358 627 l 269 627 l 269 448 l 179 448 l 179 179 l 358 179 l 358 269 l 448 269 l 448 358 l 358 358 l 358 448 l 627 448 l 627 179 l 537 179 l 537 90 l 448 90 l 448 0 l 90 0 l 90 90 l 0 90 l 0 537 l 90 537 l 90 716 l 179 716 l 179 806 l 269 806 l 269 895 z "},"H":{"ha":723,"x_min":0,"x_max":627,"o":"m 537 895 l 627 895 l 627 0 l 448 0 l 448 358 l 179 358 l 179 0 l 0 0 l 0 716 l 90 716 l 90 806 l 179 806 l 179 537 l 448 537 l 448 806 l 537 806 l 537 895 z "},"I":{"ha":271,"x_min":0,"x_max":179,"o":"m 90 895 l 179 895 l 179 0 l 0 0 l 0 806 l 90 806 l 90 895 z "},"J":{"ha":633,"x_min":0,"x_max":537,"o":"m 448 895 l 537 895 l 537 90 l 448 90 l 448 0 l 358 0 l 358 -90 l 90 -90 l 90 0 l 0 0 l 0 179 l 90 179 l 90 90 l 269 90 l 269 179 l 358 179 l 358 806 l 448 806 l 448 895 z "},"K":{"ha":723,"x_min":0,"x_max":627,"o":"m 90 895 l 179 895 l 179 537 l 269 537 l 269 627 l 358 627 l 358 716 l 448 716 l 448 806 l 537 806 l 537 895 l 627 895 l 627 627 l 537 627 l 537 537 l 448 537 l 448 358 l 537 358 l 537 269 l 627 269 l 627 0 l 448 0 l 448 179 l 358 179 l 358 269 l 269 269 l 269 358 l 179 358 l 179 0 l 0 0 l 0 806 l 90 806 l 90 895 z "},"L":{"ha":543,"x_min":0,"x_max":537,"o":"m 90 895 l 179 895 l 179 179 l 537 179 l 537 90 l 448 90 l 448 0 l 0 0 l 0 806 l 90 806 l 90 895 z "},"M":{"ha":814,"x_min":0,"x_max":716,"o":"m 90 895 l 179 895 l 179 806 l 269 806 l 269 716 l 358 716 l 358 627 l 448 627 l 448 716 l 537 716 l 537 806 l 627 806 l 627 895 l 716 895 l 716 0 l 537 0 l 537 537 l 448 537 l 448 448 l 269 448 l 269 537 l 179 537 l 179 0 l 0 0 l 0 806 l 90 806 l 90 895 z "},"N":{"ha":723,"x_min":0,"x_max":627,"o":"m 90 895 l 179 895 l 179 806 l 269 806 l 269 627 l 358 627 l 358 448 l 448 448 l 448 806 l 537 806 l 537 895 l 627 895 l 627 0 l 448 0 l 448 90 l 358 90 l 358 269 l 269 269 l 269 448 l 179 448 l 179 0 l 0 0 l 0 806 l 90 806 l 90 895 z "},"O":{"ha":723,"x_min":0,"x_max":627,"o":"m 269 895 l 537 895 l 537 806 l 627 806 l 627 179 l 537 179 l 537 90 l 448 90 l 448 0 l 90 0 l 90 90 l 0 90 l 0 537 l 90 537 l 90 716 l 179 716 l 179 806 l 269 806 l 269 895 m 358 716 l 358 627 l 269 627 l 269 448 l 179 448 l 179 179 l 358 179 l 358 269 l 448 269 l 448 716 l 358 716 z "},"P":{"ha":633,"x_min":0,"x_max":537,"o":"m 179 895 l 448 895 l 448 806 l 537 806 l 537 448 l 448 448 l 448 358 l 358 358 l 358 269 l 179 269 l 179 0 l 0 0 l 0 716 l 90 716 l 90 806 l 179 806 l 179 895 m 269 716 l 269 627 l 179 627 l 179 448 l 269 448 l 269 537 l 358 537 l 358 716 l 269 716 z "},"Q":{"ha":723,"x_min":0,"x_max":627,"o":"m 269 895 l 537 895 l 537 806 l 627 806 l 627 179 l 537 179 l 537 90 l 627 90 l 627 -90 l 448 -90 l 448 0 l 90 0 l 90 90 l 0 90 l 0 537 l 90 537 l 90 716 l 179 716 l 179 806 l 269 806 l 269 895 m 358 716 l 358 627 l 269 627 l 269 448 l 179 448 l 179 179 l 358 179 l 358 269 l 448 269 l 448 716 l 358 716 z "},"R":{"ha":633,"x_min":0,"x_max":537,"o":"m 179 895 l 448 895 l 448 806 l 537 806 l 537 448 l 448 448 l 448 358 l 358 358 l 358 269 l 448 269 l 448 179 l 537 179 l 537 0 l 358 0 l 358 90 l 269 90 l 269 269 l 179 269 l 179 0 l 0 0 l 0 716 l 90 716 l 90 806 l 179 806 l 179 895 m 269 716 l 269 627 l 179 627 l 179 448 l 269 448 l 269 537 l 358 537 l 358 716 l 269 716 z "},"S":{"ha":633,"x_min":0,"x_max":627,"o":"m 269 895 l 537 895 l 537 806 l 627 806 l 627 627 l 537 627 l 537 716 l 358 716 l 358 627 l 269 627 l 269 537 l 448 537 l 448 448 l 537 448 l 537 179 l 448 179 l 448 90 l 358 90 l 358 0 l 90 0 l 90 90 l 0 90 l 0 269 l 179 269 l 179 179 l 269 179 l 269 269 l 358 269 l 358 358 l 179 358 l 179 448 l 90 448 l 90 716 l 179 716 l 179 806 l 269 806 l 269 895 z "},"T":{"ha":723,"x_min":0,"x_max":716,"o":"m 358 895 l 716 895 l 716 806 l 627 806 l 627 716 l 448 716 l 448 0 l 269 0 l 269 627 l 0 627 l 0 716 l 90 716 l 90 806 l 358 806 l 358 895 z "},"U":{"ha":633,"x_min":0,"x_max":537,"o":"m 448 895 l 537 895 l 537 90 l 448 90 l 448 0 l 90 0 l 90 90 l 0 90 l 0 716 l 90 716 l 90 806 l 179 806 l 179 179 l 358 179 l 358 806 l 448 806 l 448 895 z "},"V":{"ha":723,"x_min":0,"x_max":627,"o":"m 90 895 l 179 895 l 179 179 l 269 179 l 269 269 l 358 269 l 358 448 l 448 448 l 448 806 l 537 806 l 537 895 l 627 895 l 627 448 l 537 448 l 537 269 l 448 269 l 448 90 l 358 90 l 358 0 l 179 0 l 179 90 l 90 90 l 90 179 l 0 179 l 0 806 l 90 806 l 90 895 z "},"W":{"ha":994,"x_min":0,"x_max":895,"o":"m 90 895 l 179 895 l 179 179 l 269 179 l 269 269 l 358 269 l 358 627 l 448 627 l 448 716 l 537 716 l 537 179 l 627 179 l 627 269 l 716 269 l 716 806 l 806 806 l 806 895 l 895 895 l 895 269 l 806 269 l 806 179 l 716 179 l 716 90 l 627 90 l 627 0 l 448 0 l 448 179 l 358 179 l 358 90 l 269 90 l 269 0 l 90 0 l 90 179 l 0 179 l 0 806 l 90 806 l 90 895 z "},"X":{"ha":723,"x_min":0,"x_max":627,"o":"m 0 895 l 90 895 l 90 806 l 179 806 l 179 716 l 269 716 l 269 627 l 358 627 l 358 716 l 448 716 l 448 806 l 537 806 l 537 895 l 627 895 l 627 627 l 537 627 l 537 537 l 448 537 l 448 448 l 358 448 l 358 358 l 448 358 l 448 269 l 537 269 l 537 179 l 627 179 l 627 0 l 448 0 l 448 90 l 358 90 l 358 179 l 269 179 l 269 269 l 179 269 l 179 90 l 90 90 l 90 0 l 0 0 l 0 269 l 90 269 l 90 358 l 179 358 l 179 537 l 90 537 l 90 627 l 0 627 l 0 895 z "},"Y":{"ha":633,"x_min":0,"x_max":537,"o":"m 0 895 l 90 895 l 90 806 l 179 806 l 179 627 l 358 627 l 358 806 l 448 806 l 448 895 l 537 895 l 537 537 l 448 537 l 448 448 l 358 448 l 358 0 l 179 0 l 179 358 l 90 358 l 90 537 l 0 537 l 0 895 z "},"Z":{"ha":814,"x_min":0,"x_max":716,"o":"m 179 895 l 716 895 l 716 627 l 627 627 l 627 537 l 537 537 l 537 448 l 448 448 l 448 358 l 358 358 l 358 269 l 269 269 l 269 179 l 716 179 l 716 90 l 627 90 l 627 0 l 0 0 l 0 179 l 90 179 l 90 269 l 179 269 l 179 358 l 269 358 l 269 448 l 358 448 l 358 537 l 448 537 l 448 627 l 537 627 l 537 716 l 90 716 l 90 806 l 179 806 l 179 895 z "},"[":{"ha":362,"x_min":0,"x_max":269,"o":"m 0 985 l 269 985 l 269 895 l 179 895 l 179 -90 l 269 -90 l 269 -179 l 0 -179 l 0 985 z "},"\\":{"ha":633,"x_min":0,"x_max":627,"o":"m 0 985 l 179 985 l 179 806 l 269 806 l 269 627 l 358 627 l 358 448 l 448 448 l 448 269 l 537 269 l 537 90 l 627 90 l 627 -90 l 448 -90 l 448 90 l 358 90 l 358 269 l 269 269 l 269 448 l 179 448 l 179 627 l 90 627 l 90 806 l 0 806 l 0 985 z "},"]":{"ha":362,"x_min":0,"x_max":269,"o":"m 0 985 l 269 985 l 269 -179 l 0 -179 l 0 -90 l 90 -90 l 90 895 l 0 895 l 0 985 z "},"^":{"ha":723,"x_min":0,"x_max":627,"o":"m 269 895 l 358 895 l 358 806 l 448 806 l 448 716 l 537 716 l 537 627 l 627 627 l 627 537 l 448 537 l 448 627 l 358 627 l 358 716 l 269 716 l 269 627 l 179 627 l 179 537 l 0 537 l 0 627 l 90 627 l 90 716 l 179 716 l 179 806 l 269 806 l 269 895 z "},"_":{"ha":905,"x_min":0,"x_max":895,"o":"m 0 0 l 895 0 l 895 -179 l 0 -179 l 0 0 z "},"`":{"ha":362,"x_min":0,"x_max":269,"o":"m 0 985 l 179 985 l 179 895 l 269 895 l 269 806 l 90 806 l 90 895 l 0 895 l 0 985 z "},"a":{"ha":633,"x_min":0,"x_max":627,"o":"m 179 627 l 448 627 l 448 537 l 537 537 l 537 90 l 627 90 l 627 0 l 448 0 l 448 90 l 358 90 l 358 0 l 90 0 l 90 90 l 0 90 l 0 448 l 90 448 l 90 537 l 179 537 l 179 627 m 269 537 l 269 448 l 179 448 l 179 90 l 269 90 l 269 179 l 358 179 l 358 537 l 269 537 z "},"b":{"ha":633,"x_min":0,"x_max":537,"o":"m 90 895 l 179 895 l 179 537 l 269 537 l 269 627 l 448 627 l 448 537 l 537 537 l 537 179 l 448 179 l 448 90 l 358 90 l 358 0 l 90 0 l 90 90 l 0 90 l 0 806 l 90 806 l 90 895 m 269 537 l 269 448 l 179 448 l 179 90 l 269 90 l 269 179 l 358 179 l 358 537 l 269 537 z "},"c":{"ha":633,"x_min":0,"x_max":537,"o":"m 179 627 l 448 627 l 448 537 l 537 537 l 537 448 l 358 448 l 358 537 l 269 537 l 269 448 l 179 448 l 179 90 l 269 90 l 269 179 l 358 179 l 358 269 l 537 269 l 537 179 l 448 179 l 448 90 l 358 90 l 358 0 l 90 0 l 90 90 l 0 90 l 0 448 l 90 448 l 90 537 l 179 537 l 179 627 z "},"d":{"ha":633,"x_min":0,"x_max":537,"o":"m 448 895 l 537 895 l 537 179 l 448 179 l 448 90 l 358 90 l 358 0 l 90 0 l 90 90 l 0 90 l 0 448 l 90 448 l 90 537 l 179 537 l 179 627 l 358 627 l 358 806 l 448 806 l 448 895 m 269 537 l 269 448 l 179 448 l 179 90 l 269 90 l 269 179 l 358 179 l 358 537 l 269 537 z "},"e":{"ha":543,"x_min":0,"x_max":537,"o":"m 179 627 l 448 627 l 448 537 l 537 537 l 537 448 l 448 448 l 448 358 l 358 358 l 358 269 l 448 269 l 448 90 l 358 90 l 358 0 l 90 0 l 90 90 l 0 90 l 0 448 l 90 448 l 90 537 l 179 537 l 179 627 m 269 537 l 269 448 l 179 448 l 179 358 l 269 358 l 269 448 l 358 448 l 358 537 l 269 537 m 179 269 l 179 90 l 269 90 l 269 179 l 358 179 l 358 269 l 179 269 z "},"f":{"ha":452,"x_min":0,"x_max":358,"o":"m 179 895 l 358 895 l 358 806 l 269 806 l 269 627 l 358 627 l 358 448 l 269 448 l 269 -90 l 90 -90 l 90 358 l 0 358 l 0 537 l 90 537 l 90 806 l 179 806 l 179 895 z "},"g":{"ha":633,"x_min":0,"x_max":537,"o":"m 179 627 l 448 627 l 448 537 l 537 537 l 537 -90 l 448 -90 l 448 -179 l 358 -179 l 358 -269 l 179 -269 l 179 -179 l 269 -179 l 269 -90 l 358 -90 l 358 0 l 90 0 l 90 90 l 0 90 l 0 448 l 90 448 l 90 537 l 179 537 l 179 627 m 269 537 l 269 448 l 179 448 l 179 90 l 269 90 l 269 179 l 358 179 l 358 537 l 269 537 z "},"h":{"ha":633,"x_min":0,"x_max":537,"o":"m 90 895 l 179 895 l 179 537 l 269 537 l 269 627 l 448 627 l 448 537 l 537 537 l 537 0 l 358 0 l 358 537 l 269 537 l 269 448 l 179 448 l 179 0 l 0 0 l 0 806 l 90 806 l 90 895 z "},"i":{"ha":271,"x_min":0,"x_max":179,"o":"m 90 895 l 179 895 l 179 716 l 90 716 l 90 627 l 179 627 l 179 0 l 0 0 l 0 537 l 90 537 l 90 627 l 0 627 l 0 806 l 90 806 l 90 895 z "},"j":{"ha":452,"x_min":0,"x_max":358,"o":"m 269 895 l 358 895 l 358 716 l 269 716 l 269 627 l 358 627 l 358 -90 l 269 -90 l 269 -179 l 179 -179 l 179 -269 l 0 -269 l 0 -179 l 90 -179 l 90 -90 l 179 -90 l 179 537 l 269 537 l 269 627 l 179 627 l 179 806 l 269 806 l 269 895 z "},"k":{"ha":633,"x_min":0,"x_max":537,"o":"m 90 895 l 179 895 l 179 448 l 269 448 l 269 537 l 358 537 l 358 627 l 537 627 l 537 537 l 448 537 l 448 448 l 358 448 l 358 269 l 448 269 l 448 179 l 537 179 l 537 0 l 358 0 l 358 179 l 269 179 l 269 269 l 179 269 l 179 0 l 0 0 l 0 806 l 90 806 l 90 895 z "},"l":{"ha":271,"x_min":0,"x_max":179,"o":"m 90 895 l 179 895 l 179 0 l 0 0 l 0 806 l 90 806 l 90 895 z "},"m":{"ha":994,"x_min":0,"x_max":895,"o":"m 269 627 l 448 627 l 448 537 l 627 537 l 627 627 l 806 627 l 806 537 l 895 537 l 895 0 l 716 0 l 716 537 l 627 537 l 627 448 l 537 448 l 537 0 l 358 0 l 358 537 l 269 537 l 269 448 l 179 448 l 179 0 l 0 0 l 0 448 l 90 448 l 90 537 l 269 537 l 269 627 z "},"n":{"ha":633,"x_min":0,"x_max":537,"o":"m 269 627 l 448 627 l 448 537 l 537 537 l 537 0 l 358 0 l 358 537 l 269 537 l 269 448 l 179 448 l 179 0 l 0 0 l 0 448 l 90 448 l 90 537 l 269 537 l 269 627 z "},"o":{"ha":633,"x_min":0,"x_max":537,"o":"m 179 627 l 448 627 l 448 537 l 537 537 l 537 179 l 448 179 l 448 90 l 358 90 l 358 0 l 90 0 l 90 90 l 0 90 l 0 448 l 90 448 l 90 537 l 179 537 l 179 627 m 269 537 l 269 448 l 179 448 l 179 90 l 269 90 l 269 179 l 358 179 l 358 537 l 269 537 z "},"p":{"ha":633,"x_min":0,"x_max":537,"o":"m 179 627 l 448 627 l 448 537 l 537 537 l 537 179 l 448 179 l 448 90 l 358 90 l 358 0 l 179 0 l 179 -179 l 90 -179 l 90 -269 l 0 -269 l 0 537 l 179 537 l 179 627 m 269 537 l 269 448 l 179 448 l 179 90 l 269 90 l 269 179 l 358 179 l 358 537 l 269 537 z "},"q":{"ha":633,"x_min":0,"x_max":537,"o":"m 179 627 l 448 627 l 448 537 l 537 537 l 537 -269 l 448 -269 l 448 -179 l 358 -179 l 358 0 l 90 0 l 90 90 l 0 90 l 0 448 l 90 448 l 90 537 l 179 537 l 179 627 m 269 537 l 269 448 l 179 448 l 179 90 l 269 90 l 269 179 l 358 179 l 358 537 l 269 537 z "},"r":{"ha":543,"x_min":0,"x_max":448,"o":"m 179 627 l 358 627 l 358 537 l 448 537 l 448 358 l 358 358 l 358 448 l 179 448 l 179 0 l 0 0 l 0 448 l 90 448 l 90 537 l 179 537 l 179 627 z "},"s":{"ha":452,"x_min":0,"x_max":358,"o":"m 90 627 l 358 627 l 358 537 l 269 537 l 269 448 l 179 448 l 179 358 l 269 358 l 269 269 l 358 269 l 358 90 l 269 90 l 269 0 l 0 0 l 0 90 l 90 90 l 90 179 l 179 179 l 179 269 l 90 269 l 90 358 l 0 358 l 0 537 l 90 537 l 90 627 z "},"t":{"ha":452,"x_min":0,"x_max":448,"o":"m 179 806 l 269 806 l 269 716 l 448 716 l 448 627 l 358 627 l 358 537 l 269 537 l 269 0 l 90 0 l 90 448 l 0 448 l 0 537 l 90 537 l 90 716 l 179 716 l 179 806 z "},"u":{"ha":633,"x_min":0,"x_max":537,"o":"m 90 627 l 179 627 l 179 90 l 269 90 l 269 179 l 358 179 l 358 537 l 448 537 l 448 627 l 537 627 l 537 179 l 448 179 l 448 90 l 358 90 l 358 0 l 90 0 l 90 90 l 0 90 l 0 537 l 90 537 l 90 627 z "},"v":{"ha":633,"x_min":0,"x_max":537,"o":"m 90 627 l 179 627 l 179 179 l 269 179 l 269 358 l 358 358 l 358 537 l 448 537 l 448 627 l 537 627 l 537 358 l 448 358 l 448 179 l 358 179 l 358 90 l 269 90 l 269 0 l 90 0 l 90 179 l 0 179 l 0 537 l 90 537 l 90 627 z "},"w":{"ha":905,"x_min":0,"x_max":806,"o":"m 90 627 l 179 627 l 179 179 l 269 179 l 269 358 l 358 358 l 358 448 l 448 448 l 448 179 l 537 179 l 537 358 l 627 358 l 627 537 l 716 537 l 716 627 l 806 627 l 806 358 l 716 358 l 716 179 l 627 179 l 627 90 l 537 90 l 537 0 l 358 0 l 358 90 l 269 90 l 269 0 l 90 0 l 90 179 l 0 179 l 0 537 l 90 537 l 90 627 z "},"x":{"ha":633,"x_min":0,"x_max":537,"o":"m 448 627 l 537 627 l 537 448 l 448 448 l 448 269 l 358 269 l 358 179 l 448 179 l 448 90 l 537 90 l 537 0 l 358 0 l 358 90 l 179 90 l 179 0 l 0 0 l 0 90 l 90 90 l 90 179 l 179 179 l 179 269 l 90 269 l 90 358 l 0 358 l 0 537 l 90 537 l 90 448 l 179 448 l 179 358 l 269 358 l 269 448 l 358 448 l 358 537 l 448 537 l 448 627 z "},"y":{"ha":633,"x_min":0,"x_max":537,"o":"m 90 627 l 179 627 l 179 179 l 269 179 l 269 269 l 358 269 l 358 537 l 448 537 l 448 627 l 537 627 l 537 0 l 448 0 l 448 -90 l 358 -90 l 358 -179 l 179 -179 l 179 -90 l 269 -90 l 269 0 l 90 0 l 90 90 l 0 90 l 0 537 l 90 537 l 90 627 m 269 90 l 269 0 l 358 0 l 358 90 l 269 90 z "},"z":{"ha":543,"x_min":0,"x_max":448,"o":"m 90 627 l 448 627 l 448 358 l 358 358 l 358 269 l 269 269 l 269 179 l 448 179 l 448 0 l 0 0 l 0 179 l 90 179 l 90 269 l 179 269 l 179 358 l 269 358 l 269 448 l 90 448 l 90 627 z "},"{":{"ha":452,"x_min":0,"x_max":358,"o":"m 269 895 l 358 895 l 358 716 l 269 716 l 269 358 l 179 358 l 179 269 l 269 269 l 269 -90 l 358 -90 l 358 -269 l 269 -269 l 269 -179 l 179 -179 l 179 -90 l 90 -90 l 90 269 l 0 269 l 0 358 l 90 358 l 90 716 l 179 716 l 179 806 l 269 806 l 269 895 z "},"|":{"ha":271,"x_min":0,"x_max":179,"o":"m 0 895 l 179 895 l 179 -269 l 0 -269 l 0 895 z "},"}":{"ha":452,"x_min":0,"x_max":358,"o":"m 0 895 l 90 895 l 90 806 l 179 806 l 179 716 l 269 716 l 269 358 l 358 358 l 358 269 l 269 269 l 269 -90 l 179 -90 l 179 -179 l 90 -179 l 90 -269 l 0 -269 l 0 -90 l 90 -90 l 90 269 l 179 269 l 179 358 l 90 358 l 90 716 l 0 716 l 0 895 z "},"~":{"ha":633,"x_min":0,"x_max":537,"o":"m 90 537 l 269 537 l 269 448 l 448 448 l 448 537 l 537 537 l 537 358 l 448 358 l 448 269 l 269 269 l 269 358 l 90 358 l 90 269 l 0 269 l 0 448 l 90 448 l 90 537 z "}}}
